REM DIRINDEX 1
REM DIRNAME folder01
TITLE ""
FILE "Disk1Track29.mp3" MP3
  TRACK 01 AUDIO
    TITLE "1:cjc069_0197"
    INDEX 01 00:00:00
  TRACK 02 AUDIO
    TITLE "1:cjc069_0198"
    INDEX 01 00:03:06
  TRACK 03 AUDIO
    TITLE "1:cjc069_0199"
    INDEX 01 00:18:52
  TRACK 04 AUDIO
    TITLE "1:cjc069_0200"
    INDEX 01 00:22:72
  TRACK 05 AUDIO
    TITLE "1:cjc069_0201"
    INDEX 01 00:36:17
  TRACK 06 AUDIO
    TITLE "0:"
    INDEX 01 00:45:59
